<svg id="Layer_1" data-name="Layer 1" xmlns="http://www.w3.org/2000/svg" viewBox="0 0 150 150"><defs><style>.cls-1{fill:#ff4500;}.cls-2{fill:#fff;}</style></defs><rect class="cls-1" x="6.093" y="6.02" width="138.046" height="138.046" rx="17.256"/><path class="cls-2" d="M125.337,75.043a10.729,10.729,0,0,0-18.184-7.724c-7.339-5.3-17.451-8.716-28.713-9.11L83.331,35.2,99.31,38.6a7.679,7.679,0,1,0,.785-3.754L82.252,31.049a1.919,1.919,0,0,0-2.274,1.477L74.516,58.2c-11.427.318-21.7,3.743-29.135,9.1A10.73,10.73,0,1,0,33.563,84.833a21.1,21.1,0,0,0-.257,3.248c0,16.519,19.229,29.91,42.948,29.91S119.2,104.6,119.2,88.081a21.194,21.194,0,0,0-.252-3.226A10.734,10.734,0,0,0,125.337,75.043Zm-73.613,7.67A7.67,7.67,0,1,1,59.4,90.381,7.68,7.68,0,0,1,51.724,82.713Zm42.765,20.265c-5.235,5.227-15.265,5.634-18.214,5.634s-12.981-.407-18.209-5.635a1.987,1.987,0,1,1,2.811-2.81c3.3,3.3,10.357,4.47,15.4,4.47s12.1-1.171,15.405-4.471a1.987,1.987,0,0,1,2.809,2.812ZM93.138,90.383a7.67,7.67,0,1,1,7.669-7.669A7.677,7.677,0,0,1,93.138,90.383Z"/></svg>