<?xml version="1.0" encoding="UTF-8" standalone="no"?>
<!-- Generator: Adobe Illustrator 20.0.0, SVG Export Plug-In . SVG Version: 6.00 Build 0)  -->

<svg
   version="1.1"
   id="White"
   x="0px"
   y="0px"
   viewBox="0 0 128 128"
   xml:space="preserve"
   width="128"
   height="128"
   xmlns="http://www.w3.org/2000/svg"
   xmlns:svg="http://www.w3.org/2000/svg"><defs
   id="defs9" />
<style
   type="text/css"
   id="style2">
	.st0{fill:#FFFFFF;}
</style>
<path
   class="st0"
   d="M 112,128 H 16 C 7.168,128 0,120.832 0,112 V 16 C 0,7.168 7.168,0 16,0 h 96 c 8.832,0 16,7.168 16,16 v 96 c 0,8.832 -7.168,16 -16,16 z M 49.152,96.512 c 30.176,0 46.688,-25.024 46.688,-46.688 0,-0.704 0,-1.408 -0.032,-2.112 3.2,-2.304 5.984,-5.216 8.192,-8.512 -2.944,1.312 -6.112,2.176 -9.44,2.592 3.392,-2.016 5.984,-5.248 7.232,-9.088 -3.168,1.888 -6.688,3.232 -10.432,3.968 -3.008,-3.2 -7.264,-5.184 -11.968,-5.184 -9.056,0 -16.416,7.36 -16.416,16.416 0,1.28 0.16,2.528 0.416,3.744 C 49.76,50.976 37.664,44.416 29.568,34.496 c -1.408,2.432 -2.208,5.248 -2.208,8.256 0,5.696 2.912,10.72 7.296,13.664 -2.688,-0.096 -5.216,-0.832 -7.424,-2.048 0,0.064 0,0.128 0,0.224 0,7.936 5.664,14.592 13.152,16.096 -1.376,0.384 -2.816,0.576 -4.32,0.576 -1.056,0 -2.08,-0.096 -3.072,-0.288 2.08,6.528 8.16,11.264 15.328,11.392 -5.632,4.416 -12.704,7.04 -20.384,7.04 -1.312,0 -2.624,-0.064 -3.904,-0.224 7.232,4.608 15.872,7.328 25.12,7.328"
   id="path4"
   style="stroke-width:0.32" />
</svg>
